<mxfile host="app.diagrams.net" modified="2024-01-14T02:59:20.182Z" agent="Mozilla/5.0 (Windows NT 10.0; Win64; x64) AppleWebKit/537.36 (KHTML, like Gecko) Chrome/120.0.0.0 Safari/537.36" etag="JsGE3QwpRjH-7quKltBF" version="22.1.18" type="device">
  <diagram name="Page-1" id="DiKKlZwv3A4mBQPTTc6W">
    <mxGraphModel dx="2005" dy="522" grid="1" gridSize="10" guides="1" tooltips="1" connect="1" arrows="1" fold="1" page="1" pageScale="1" pageWidth="850" pageHeight="1100" math="0" shadow="0">
      <root>
        <mxCell id="0" />
        <mxCell id="1" parent="0" />
        <mxCell id="b5WLC2TeYPJEG6A0NlMQ-1" value="Sách" style="rounded=0;whiteSpace=wrap;html=1;" parent="1" vertex="1">
          <mxGeometry x="140" y="140" width="120" height="60" as="geometry" />
        </mxCell>
        <mxCell id="b5WLC2TeYPJEG6A0NlMQ-2" value="Loại Sách" style="rounded=0;whiteSpace=wrap;html=1;" parent="1" vertex="1">
          <mxGeometry x="670" y="140" width="120" height="60" as="geometry" />
        </mxCell>
        <mxCell id="b5WLC2TeYPJEG6A0NlMQ-3" value="Sinh Viên" style="rounded=0;whiteSpace=wrap;html=1;" parent="1" vertex="1">
          <mxGeometry x="670" y="500" width="120" height="60" as="geometry" />
        </mxCell>
        <mxCell id="b5WLC2TeYPJEG6A0NlMQ-4" value="Phiếu Mượn" style="rounded=0;whiteSpace=wrap;html=1;" parent="1" vertex="1">
          <mxGeometry x="140" y="500" width="120" height="60" as="geometry" />
        </mxCell>
        <mxCell id="b5WLC2TeYPJEG6A0NlMQ-5" value="&lt;b&gt;&lt;u&gt;Mã sách&lt;/u&gt;&lt;/b&gt;" style="ellipse;whiteSpace=wrap;html=1;" parent="1" vertex="1">
          <mxGeometry x="40" width="80" height="40" as="geometry" />
        </mxCell>
        <mxCell id="b5WLC2TeYPJEG6A0NlMQ-6" value="Tiêu đề" style="ellipse;whiteSpace=wrap;html=1;" parent="1" vertex="1">
          <mxGeometry x="210" width="80" height="40" as="geometry" />
        </mxCell>
        <mxCell id="b5WLC2TeYPJEG6A0NlMQ-7" value="Nhà xuất bản" style="ellipse;whiteSpace=wrap;html=1;" parent="1" vertex="1">
          <mxGeometry x="240" y="40" width="80" height="40" as="geometry" />
        </mxCell>
        <mxCell id="b5WLC2TeYPJEG6A0NlMQ-8" value="Tác giả" style="ellipse;whiteSpace=wrap;html=1;" parent="1" vertex="1">
          <mxGeometry x="280" y="80" width="80" height="40" as="geometry" />
        </mxCell>
        <mxCell id="b5WLC2TeYPJEG6A0NlMQ-9" value="Số trang" style="ellipse;whiteSpace=wrap;html=1;" parent="1" vertex="1">
          <mxGeometry x="10" y="40" width="80" height="40" as="geometry" />
        </mxCell>
        <mxCell id="b5WLC2TeYPJEG6A0NlMQ-10" value="Số lượng bản sao" style="ellipse;whiteSpace=wrap;html=1;" parent="1" vertex="1">
          <mxGeometry x="120" width="90" height="40" as="geometry" />
        </mxCell>
        <mxCell id="b5WLC2TeYPJEG6A0NlMQ-12" value="Giá tiền" style="ellipse;whiteSpace=wrap;html=1;" parent="1" vertex="1">
          <mxGeometry x="10" y="80" width="80" height="40" as="geometry" />
        </mxCell>
        <mxCell id="b5WLC2TeYPJEG6A0NlMQ-13" value="Ngày nhập kho" style="ellipse;whiteSpace=wrap;html=1;" parent="1" vertex="1">
          <mxGeometry x="10" y="120" width="80" height="40" as="geometry" />
        </mxCell>
        <mxCell id="b5WLC2TeYPJEG6A0NlMQ-14" value="Vị trí đặt sách" style="ellipse;whiteSpace=wrap;html=1;" parent="1" vertex="1">
          <mxGeometry x="10" y="160" width="80" height="40" as="geometry" />
        </mxCell>
        <mxCell id="b5WLC2TeYPJEG6A0NlMQ-15" value="Loại sách" style="ellipse;whiteSpace=wrap;html=1;" parent="1" vertex="1">
          <mxGeometry x="40" y="200" width="80" height="40" as="geometry" />
        </mxCell>
        <mxCell id="b5WLC2TeYPJEG6A0NlMQ-21" value="" style="endArrow=none;html=1;rounded=0;entryX=0.5;entryY=0;entryDx=0;entryDy=0;exitX=0.5;exitY=1;exitDx=0;exitDy=0;" parent="1" edge="1">
          <mxGeometry width="50" height="50" relative="1" as="geometry">
            <mxPoint x="160" y="40" as="sourcePoint" />
            <mxPoint x="195" y="140" as="targetPoint" />
          </mxGeometry>
        </mxCell>
        <mxCell id="b5WLC2TeYPJEG6A0NlMQ-22" value="" style="endArrow=none;html=1;rounded=0;entryX=0.577;entryY=0.033;entryDx=0;entryDy=0;entryPerimeter=0;" parent="1" target="b5WLC2TeYPJEG6A0NlMQ-1" edge="1">
          <mxGeometry width="50" height="50" relative="1" as="geometry">
            <mxPoint x="240" y="40" as="sourcePoint" />
            <mxPoint x="210" y="150" as="targetPoint" />
          </mxGeometry>
        </mxCell>
        <mxCell id="b5WLC2TeYPJEG6A0NlMQ-23" value="" style="endArrow=none;html=1;rounded=0;entryX=0.337;entryY=0.033;entryDx=0;entryDy=0;entryPerimeter=0;" parent="1" target="b5WLC2TeYPJEG6A0NlMQ-1" edge="1">
          <mxGeometry width="50" height="50" relative="1" as="geometry">
            <mxPoint x="100" y="40" as="sourcePoint" />
            <mxPoint x="200" y="140" as="targetPoint" />
          </mxGeometry>
        </mxCell>
        <mxCell id="b5WLC2TeYPJEG6A0NlMQ-24" value="" style="endArrow=none;html=1;rounded=0;entryX=0.25;entryY=0;entryDx=0;entryDy=0;exitX=1;exitY=0.5;exitDx=0;exitDy=0;" parent="1" source="b5WLC2TeYPJEG6A0NlMQ-9" target="b5WLC2TeYPJEG6A0NlMQ-1" edge="1">
          <mxGeometry width="50" height="50" relative="1" as="geometry">
            <mxPoint x="195" y="70" as="sourcePoint" />
            <mxPoint x="230" y="170" as="targetPoint" />
          </mxGeometry>
        </mxCell>
        <mxCell id="b5WLC2TeYPJEG6A0NlMQ-25" value="" style="endArrow=none;html=1;rounded=0;exitX=0.335;exitY=0.95;exitDx=0;exitDy=0;exitPerimeter=0;" parent="1" source="b5WLC2TeYPJEG6A0NlMQ-7" target="b5WLC2TeYPJEG6A0NlMQ-1" edge="1">
          <mxGeometry width="50" height="50" relative="1" as="geometry">
            <mxPoint x="205" y="80" as="sourcePoint" />
            <mxPoint x="240" y="180" as="targetPoint" />
          </mxGeometry>
        </mxCell>
        <mxCell id="b5WLC2TeYPJEG6A0NlMQ-26" value="" style="endArrow=none;html=1;rounded=0;entryX=1;entryY=0.25;entryDx=0;entryDy=0;exitX=0.5;exitY=1;exitDx=0;exitDy=0;" parent="1" source="b5WLC2TeYPJEG6A0NlMQ-8" target="b5WLC2TeYPJEG6A0NlMQ-1" edge="1">
          <mxGeometry width="50" height="50" relative="1" as="geometry">
            <mxPoint x="215" y="90" as="sourcePoint" />
            <mxPoint x="250" y="190" as="targetPoint" />
          </mxGeometry>
        </mxCell>
        <mxCell id="b5WLC2TeYPJEG6A0NlMQ-28" value="" style="endArrow=none;html=1;rounded=0;exitX=1;exitY=0.5;exitDx=0;exitDy=0;" parent="1" source="b5WLC2TeYPJEG6A0NlMQ-12" edge="1">
          <mxGeometry width="50" height="50" relative="1" as="geometry">
            <mxPoint x="100" y="70" as="sourcePoint" />
            <mxPoint x="160" y="140" as="targetPoint" />
          </mxGeometry>
        </mxCell>
        <mxCell id="b5WLC2TeYPJEG6A0NlMQ-29" value="" style="endArrow=none;html=1;rounded=0;entryX=0;entryY=0.5;entryDx=0;entryDy=0;exitX=1;exitY=0.5;exitDx=0;exitDy=0;" parent="1" source="b5WLC2TeYPJEG6A0NlMQ-13" target="b5WLC2TeYPJEG6A0NlMQ-1" edge="1">
          <mxGeometry width="50" height="50" relative="1" as="geometry">
            <mxPoint x="110" y="80" as="sourcePoint" />
            <mxPoint x="190" y="160" as="targetPoint" />
          </mxGeometry>
        </mxCell>
        <mxCell id="b5WLC2TeYPJEG6A0NlMQ-30" value="" style="endArrow=none;html=1;rounded=0;entryX=0;entryY=0.75;entryDx=0;entryDy=0;exitX=1;exitY=0.5;exitDx=0;exitDy=0;" parent="1" source="b5WLC2TeYPJEG6A0NlMQ-14" target="b5WLC2TeYPJEG6A0NlMQ-1" edge="1">
          <mxGeometry width="50" height="50" relative="1" as="geometry">
            <mxPoint x="120" y="90" as="sourcePoint" />
            <mxPoint x="200" y="170" as="targetPoint" />
          </mxGeometry>
        </mxCell>
        <mxCell id="b5WLC2TeYPJEG6A0NlMQ-31" value="" style="endArrow=none;html=1;rounded=0;entryX=0.017;entryY=0.887;entryDx=0;entryDy=0;entryPerimeter=0;" parent="1" source="b5WLC2TeYPJEG6A0NlMQ-15" target="b5WLC2TeYPJEG6A0NlMQ-1" edge="1">
          <mxGeometry width="50" height="50" relative="1" as="geometry">
            <mxPoint x="130" y="100" as="sourcePoint" />
            <mxPoint x="210" y="180" as="targetPoint" />
          </mxGeometry>
        </mxCell>
        <mxCell id="b5WLC2TeYPJEG6A0NlMQ-33" value="&lt;b&gt;&lt;u&gt;Mã loại&lt;/u&gt;&lt;/b&gt;" style="ellipse;whiteSpace=wrap;html=1;" parent="1" vertex="1">
          <mxGeometry x="620" y="60" width="80" height="40" as="geometry" />
        </mxCell>
        <mxCell id="b5WLC2TeYPJEG6A0NlMQ-34" value="Tên loại" style="ellipse;whiteSpace=wrap;html=1;" parent="1" vertex="1">
          <mxGeometry x="770" y="60" width="80" height="40" as="geometry" />
        </mxCell>
        <mxCell id="b5WLC2TeYPJEG6A0NlMQ-35" value="" style="endArrow=none;html=1;rounded=0;entryX=0.5;entryY=1;entryDx=0;entryDy=0;exitX=0.25;exitY=0;exitDx=0;exitDy=0;" parent="1" source="b5WLC2TeYPJEG6A0NlMQ-2" target="b5WLC2TeYPJEG6A0NlMQ-33" edge="1">
          <mxGeometry width="50" height="50" relative="1" as="geometry">
            <mxPoint x="740" y="280" as="sourcePoint" />
            <mxPoint x="790" y="230" as="targetPoint" />
          </mxGeometry>
        </mxCell>
        <mxCell id="b5WLC2TeYPJEG6A0NlMQ-36" value="" style="endArrow=none;html=1;rounded=0;entryX=0.5;entryY=1;entryDx=0;entryDy=0;exitX=0.75;exitY=0;exitDx=0;exitDy=0;" parent="1" source="b5WLC2TeYPJEG6A0NlMQ-2" target="b5WLC2TeYPJEG6A0NlMQ-34" edge="1">
          <mxGeometry width="50" height="50" relative="1" as="geometry">
            <mxPoint x="740" y="280" as="sourcePoint" />
            <mxPoint x="790" y="230" as="targetPoint" />
          </mxGeometry>
        </mxCell>
        <mxCell id="b5WLC2TeYPJEG6A0NlMQ-37" value="&lt;b&gt;&lt;u&gt;Mã phiếu mượn&lt;/u&gt;&lt;/b&gt;" style="ellipse;whiteSpace=wrap;html=1;" parent="1" vertex="1">
          <mxGeometry x="-20" y="510" width="80" height="40" as="geometry" />
        </mxCell>
        <mxCell id="b5WLC2TeYPJEG6A0NlMQ-47" value="" style="endArrow=none;html=1;rounded=0;entryX=0;entryY=0.5;entryDx=0;entryDy=0;exitX=1;exitY=0.5;exitDx=0;exitDy=0;" parent="1" target="b5WLC2TeYPJEG6A0NlMQ-4" edge="1" source="b5WLC2TeYPJEG6A0NlMQ-37">
          <mxGeometry width="50" height="50" relative="1" as="geometry">
            <mxPoint x="70" y="610" as="sourcePoint" />
            <mxPoint x="240" y="600" as="targetPoint" />
          </mxGeometry>
        </mxCell>
        <mxCell id="b5WLC2TeYPJEG6A0NlMQ-48" value="" style="endArrow=none;html=1;rounded=0;entryX=0;entryY=0.75;entryDx=0;entryDy=0;" parent="1" target="b5WLC2TeYPJEG6A0NlMQ-4" edge="1">
          <mxGeometry width="50" height="50" relative="1" as="geometry">
            <mxPoint x="60" y="590" as="sourcePoint" />
            <mxPoint x="150" y="560" as="targetPoint" />
          </mxGeometry>
        </mxCell>
        <mxCell id="b5WLC2TeYPJEG6A0NlMQ-49" value="" style="endArrow=none;html=1;rounded=0;entryX=0.426;entryY=0.99;entryDx=0;entryDy=0;entryPerimeter=0;" parent="1" edge="1">
          <mxGeometry width="50" height="50" relative="1" as="geometry">
            <mxPoint x="120" y="620" as="sourcePoint" />
            <mxPoint x="159.9999999999999" y="560.0000000000001" as="targetPoint" />
          </mxGeometry>
        </mxCell>
        <mxCell id="b5WLC2TeYPJEG6A0NlMQ-50" value="" style="endArrow=none;html=1;rounded=0;entryX=0.613;entryY=0.99;entryDx=0;entryDy=0;entryPerimeter=0;" parent="1" edge="1">
          <mxGeometry width="50" height="50" relative="1" as="geometry">
            <mxPoint x="200" y="620" as="sourcePoint" />
            <mxPoint x="199.99999999999994" y="560.0000000000001" as="targetPoint" />
          </mxGeometry>
        </mxCell>
        <mxCell id="b5WLC2TeYPJEG6A0NlMQ-59" value="&lt;b&gt;&lt;u&gt;Mã sinh viên&lt;/u&gt;&lt;/b&gt;" style="ellipse;whiteSpace=wrap;html=1;" parent="1" vertex="1">
          <mxGeometry x="800" y="430" width="80" height="40" as="geometry" />
        </mxCell>
        <mxCell id="b5WLC2TeYPJEG6A0NlMQ-60" value="Tên sinh viên" style="ellipse;whiteSpace=wrap;html=1;" parent="1" vertex="1">
          <mxGeometry x="830" y="470" width="80" height="40" as="geometry" />
        </mxCell>
        <mxCell id="b5WLC2TeYPJEG6A0NlMQ-61" value="Ngày hết&amp;nbsp; hạn" style="ellipse;whiteSpace=wrap;html=1;" parent="1" vertex="1">
          <mxGeometry x="850" y="520" width="80" height="40" as="geometry" />
        </mxCell>
        <mxCell id="b5WLC2TeYPJEG6A0NlMQ-62" value="Chuyên ngành học" style="ellipse;whiteSpace=wrap;html=1;" parent="1" vertex="1">
          <mxGeometry x="820" y="580" width="80" height="40" as="geometry" />
        </mxCell>
        <mxCell id="b5WLC2TeYPJEG6A0NlMQ-64" value="Email" style="ellipse;whiteSpace=wrap;html=1;" parent="1" vertex="1">
          <mxGeometry x="680" y="650" width="80" height="40" as="geometry" />
        </mxCell>
        <mxCell id="b5WLC2TeYPJEG6A0NlMQ-65" value="Số điện thoại" style="ellipse;whiteSpace=wrap;html=1;" parent="1" vertex="1">
          <mxGeometry x="750" y="620" width="80" height="40" as="geometry" />
        </mxCell>
        <mxCell id="b5WLC2TeYPJEG6A0NlMQ-70" value="" style="endArrow=none;html=1;rounded=0;exitX=0.5;exitY=0;exitDx=0;exitDy=0;" parent="1" source="b5WLC2TeYPJEG6A0NlMQ-64" edge="1">
          <mxGeometry width="50" height="50" relative="1" as="geometry">
            <mxPoint x="630" y="620" as="sourcePoint" />
            <mxPoint x="716" y="560" as="targetPoint" />
          </mxGeometry>
        </mxCell>
        <mxCell id="b5WLC2TeYPJEG6A0NlMQ-71" value="" style="endArrow=none;html=1;rounded=0;exitX=0.5;exitY=0;exitDx=0;exitDy=0;entryX=0.635;entryY=0.98;entryDx=0;entryDy=0;entryPerimeter=0;" parent="1" source="b5WLC2TeYPJEG6A0NlMQ-65" target="b5WLC2TeYPJEG6A0NlMQ-3" edge="1">
          <mxGeometry width="50" height="50" relative="1" as="geometry">
            <mxPoint x="640" y="630" as="sourcePoint" />
            <mxPoint x="700" y="575" as="targetPoint" />
          </mxGeometry>
        </mxCell>
        <mxCell id="b5WLC2TeYPJEG6A0NlMQ-74" value="Có" style="rhombus;whiteSpace=wrap;html=1;" parent="1" vertex="1">
          <mxGeometry x="425" y="130" width="80" height="80" as="geometry" />
        </mxCell>
        <mxCell id="b5WLC2TeYPJEG6A0NlMQ-75" value="" style="endArrow=none;html=1;rounded=0;entryX=0;entryY=0.5;entryDx=0;entryDy=0;exitX=1;exitY=0.5;exitDx=0;exitDy=0;" parent="1" source="b5WLC2TeYPJEG6A0NlMQ-1" target="b5WLC2TeYPJEG6A0NlMQ-74" edge="1">
          <mxGeometry width="50" height="50" relative="1" as="geometry">
            <mxPoint x="370" y="420" as="sourcePoint" />
            <mxPoint x="420" y="370" as="targetPoint" />
          </mxGeometry>
        </mxCell>
        <mxCell id="b5WLC2TeYPJEG6A0NlMQ-76" value="" style="endArrow=none;html=1;rounded=0;entryX=0;entryY=0.5;entryDx=0;entryDy=0;exitX=1;exitY=0.5;exitDx=0;exitDy=0;" parent="1" source="b5WLC2TeYPJEG6A0NlMQ-74" target="b5WLC2TeYPJEG6A0NlMQ-2" edge="1">
          <mxGeometry width="50" height="50" relative="1" as="geometry">
            <mxPoint x="370" y="420" as="sourcePoint" />
            <mxPoint x="420" y="370" as="targetPoint" />
          </mxGeometry>
        </mxCell>
        <mxCell id="b5WLC2TeYPJEG6A0NlMQ-85" value="n" style="text;html=1;strokeColor=none;fillColor=none;align=center;verticalAlign=middle;whiteSpace=wrap;rounded=0;" parent="1" vertex="1">
          <mxGeometry x="260" y="140" width="60" height="30" as="geometry" />
        </mxCell>
        <mxCell id="b5WLC2TeYPJEG6A0NlMQ-86" value="1" style="text;html=1;strokeColor=none;fillColor=none;align=center;verticalAlign=middle;whiteSpace=wrap;rounded=0;" parent="1" vertex="1">
          <mxGeometry x="610" y="140" width="60" height="30" as="geometry" />
        </mxCell>
        <mxCell id="TyafOVuiU5YW83JdTQLx-1" value="Có" style="rhombus;whiteSpace=wrap;html=1;" vertex="1" parent="1">
          <mxGeometry x="425" y="490" width="80" height="80" as="geometry" />
        </mxCell>
        <mxCell id="TyafOVuiU5YW83JdTQLx-2" value="Dòng Mượn" style="rhombus;whiteSpace=wrap;html=1;" vertex="1" parent="1">
          <mxGeometry x="160" y="310" width="80" height="80" as="geometry" />
        </mxCell>
        <mxCell id="TyafOVuiU5YW83JdTQLx-3" value="" style="endArrow=none;html=1;rounded=0;exitX=1;exitY=0.5;exitDx=0;exitDy=0;entryX=0;entryY=0.5;entryDx=0;entryDy=0;" edge="1" parent="1" source="TyafOVuiU5YW83JdTQLx-1" target="b5WLC2TeYPJEG6A0NlMQ-3">
          <mxGeometry width="50" height="50" relative="1" as="geometry">
            <mxPoint x="660" y="370" as="sourcePoint" />
            <mxPoint x="710" y="320" as="targetPoint" />
          </mxGeometry>
        </mxCell>
        <mxCell id="TyafOVuiU5YW83JdTQLx-4" value="" style="endArrow=none;html=1;rounded=0;exitX=1;exitY=0.5;exitDx=0;exitDy=0;exitPerimeter=0;entryX=0;entryY=0.5;entryDx=0;entryDy=0;" edge="1" parent="1" source="b5WLC2TeYPJEG6A0NlMQ-4" target="TyafOVuiU5YW83JdTQLx-1">
          <mxGeometry width="50" height="50" relative="1" as="geometry">
            <mxPoint x="660" y="370" as="sourcePoint" />
            <mxPoint x="710" y="320" as="targetPoint" />
          </mxGeometry>
        </mxCell>
        <mxCell id="TyafOVuiU5YW83JdTQLx-5" value="n" style="text;html=1;strokeColor=none;fillColor=none;align=center;verticalAlign=middle;whiteSpace=wrap;rounded=0;" vertex="1" parent="1">
          <mxGeometry x="260" y="500" width="60" height="30" as="geometry" />
        </mxCell>
        <mxCell id="TyafOVuiU5YW83JdTQLx-6" value="1" style="text;html=1;strokeColor=none;fillColor=none;align=center;verticalAlign=middle;whiteSpace=wrap;rounded=0;" vertex="1" parent="1">
          <mxGeometry x="610" y="500" width="60" height="30" as="geometry" />
        </mxCell>
        <mxCell id="TyafOVuiU5YW83JdTQLx-7" value="" style="endArrow=none;html=1;rounded=0;entryX=0.5;entryY=1;entryDx=0;entryDy=0;exitX=0.5;exitY=0;exitDx=0;exitDy=0;" edge="1" parent="1" source="TyafOVuiU5YW83JdTQLx-2" target="b5WLC2TeYPJEG6A0NlMQ-1">
          <mxGeometry width="50" height="50" relative="1" as="geometry">
            <mxPoint x="660" y="370" as="sourcePoint" />
            <mxPoint x="710" y="320" as="targetPoint" />
          </mxGeometry>
        </mxCell>
        <mxCell id="TyafOVuiU5YW83JdTQLx-8" value="" style="endArrow=none;html=1;rounded=0;exitX=0.5;exitY=0;exitDx=0;exitDy=0;entryX=0.5;entryY=1;entryDx=0;entryDy=0;" edge="1" parent="1" source="b5WLC2TeYPJEG6A0NlMQ-4" target="TyafOVuiU5YW83JdTQLx-2">
          <mxGeometry width="50" height="50" relative="1" as="geometry">
            <mxPoint x="660" y="370" as="sourcePoint" />
            <mxPoint x="710" y="320" as="targetPoint" />
          </mxGeometry>
        </mxCell>
        <mxCell id="TyafOVuiU5YW83JdTQLx-9" value="n" style="text;html=1;strokeColor=none;fillColor=none;align=center;verticalAlign=middle;whiteSpace=wrap;rounded=0;" vertex="1" parent="1">
          <mxGeometry x="200" y="200" width="60" height="30" as="geometry" />
        </mxCell>
        <mxCell id="TyafOVuiU5YW83JdTQLx-10" value="n" style="text;html=1;strokeColor=none;fillColor=none;align=center;verticalAlign=middle;whiteSpace=wrap;rounded=0;" vertex="1" parent="1">
          <mxGeometry x="200" y="470" width="60" height="30" as="geometry" />
        </mxCell>
        <mxCell id="TyafOVuiU5YW83JdTQLx-11" value="Ngày trả" style="ellipse;whiteSpace=wrap;html=1;" vertex="1" parent="1">
          <mxGeometry x="270" y="290" width="80" height="40" as="geometry" />
        </mxCell>
        <mxCell id="TyafOVuiU5YW83JdTQLx-12" value="Ghi chú" style="ellipse;whiteSpace=wrap;html=1;" vertex="1" parent="1">
          <mxGeometry x="270" y="380" width="80" height="40" as="geometry" />
        </mxCell>
        <mxCell id="TyafOVuiU5YW83JdTQLx-13" value="" style="endArrow=none;html=1;rounded=0;exitX=1;exitY=0.5;exitDx=0;exitDy=0;entryX=0;entryY=1;entryDx=0;entryDy=0;" edge="1" parent="1" source="TyafOVuiU5YW83JdTQLx-2" target="TyafOVuiU5YW83JdTQLx-11">
          <mxGeometry width="50" height="50" relative="1" as="geometry">
            <mxPoint x="660" y="370" as="sourcePoint" />
            <mxPoint x="710" y="320" as="targetPoint" />
          </mxGeometry>
        </mxCell>
        <mxCell id="TyafOVuiU5YW83JdTQLx-14" value="" style="endArrow=none;html=1;rounded=0;exitX=1;exitY=0.5;exitDx=0;exitDy=0;entryX=0;entryY=0;entryDx=0;entryDy=0;" edge="1" parent="1" source="TyafOVuiU5YW83JdTQLx-2" target="TyafOVuiU5YW83JdTQLx-12">
          <mxGeometry width="50" height="50" relative="1" as="geometry">
            <mxPoint x="660" y="370" as="sourcePoint" />
            <mxPoint x="710" y="320" as="targetPoint" />
          </mxGeometry>
        </mxCell>
        <mxCell id="TyafOVuiU5YW83JdTQLx-15" value="" style="endArrow=none;html=1;rounded=0;entryX=0;entryY=1;entryDx=0;entryDy=0;" edge="1" parent="1" source="b5WLC2TeYPJEG6A0NlMQ-3" target="b5WLC2TeYPJEG6A0NlMQ-59">
          <mxGeometry width="50" height="50" relative="1" as="geometry">
            <mxPoint x="730" y="660" as="sourcePoint" />
            <mxPoint x="726" y="570" as="targetPoint" />
          </mxGeometry>
        </mxCell>
        <mxCell id="TyafOVuiU5YW83JdTQLx-17" value="" style="endArrow=none;html=1;rounded=0;exitX=1;exitY=0.5;exitDx=0;exitDy=0;entryX=0;entryY=1;entryDx=0;entryDy=0;" edge="1" parent="1" source="b5WLC2TeYPJEG6A0NlMQ-3" target="b5WLC2TeYPJEG6A0NlMQ-60">
          <mxGeometry width="50" height="50" relative="1" as="geometry">
            <mxPoint x="740" y="670" as="sourcePoint" />
            <mxPoint x="736" y="580" as="targetPoint" />
          </mxGeometry>
        </mxCell>
        <mxCell id="TyafOVuiU5YW83JdTQLx-18" value="" style="endArrow=none;html=1;rounded=0;exitX=1;exitY=0.75;exitDx=0;exitDy=0;entryX=0;entryY=0.5;entryDx=0;entryDy=0;" edge="1" parent="1" source="b5WLC2TeYPJEG6A0NlMQ-3" target="b5WLC2TeYPJEG6A0NlMQ-61">
          <mxGeometry width="50" height="50" relative="1" as="geometry">
            <mxPoint x="750" y="680" as="sourcePoint" />
            <mxPoint x="746" y="590" as="targetPoint" />
          </mxGeometry>
        </mxCell>
        <mxCell id="TyafOVuiU5YW83JdTQLx-19" value="" style="endArrow=none;html=1;rounded=0;entryX=0;entryY=0.5;entryDx=0;entryDy=0;exitX=0.862;exitY=0.993;exitDx=0;exitDy=0;exitPerimeter=0;" edge="1" parent="1" source="b5WLC2TeYPJEG6A0NlMQ-3" target="b5WLC2TeYPJEG6A0NlMQ-62">
          <mxGeometry width="50" height="50" relative="1" as="geometry">
            <mxPoint x="781" y="564" as="sourcePoint" />
            <mxPoint x="756" y="600" as="targetPoint" />
          </mxGeometry>
        </mxCell>
        <mxCell id="TyafOVuiU5YW83JdTQLx-21" value="Ngày Mượn" style="ellipse;whiteSpace=wrap;html=1;" vertex="1" parent="1">
          <mxGeometry y="580" width="80" height="40" as="geometry" />
        </mxCell>
        <mxCell id="TyafOVuiU5YW83JdTQLx-22" value="Ngày Trả" style="ellipse;whiteSpace=wrap;html=1;" vertex="1" parent="1">
          <mxGeometry x="70" y="620" width="80" height="40" as="geometry" />
        </mxCell>
        <mxCell id="TyafOVuiU5YW83JdTQLx-23" value="Mã Sinh Viên" style="ellipse;whiteSpace=wrap;html=1;" vertex="1" parent="1">
          <mxGeometry x="160" y="620" width="80" height="40" as="geometry" />
        </mxCell>
      </root>
    </mxGraphModel>
  </diagram>
</mxfile>
